<?xml version="1.0" encoding="UTF-8"?><svg id="a" xmlns="http://www.w3.org/2000/svg" xmlns:xlink="http://www.w3.org/1999/xlink" viewBox="0 0 292.79 133.78"><defs><clipPath id="b"><path d="M2.12,81.43c-9.33,28.91,13.01,52.35,49.9,52.35,18.25,0,36.63-5.74,51.69-15.03-12.5,5.29-26.23,8.36-39.89,8.36-38.77,0-62.25-24.63-52.44-55.02,2.12-6.56,5.62-12.86,10.2-18.69-9.19,8.1-16.12,17.71-19.45,28.03" fill="none"/></clipPath><linearGradient id="c" x1="-959.56" y1="-591.71" x2="-958.86" y2="-591.71" gradientTransform="translate(124965.76 95057.11) scale(160.49) skewX(-17)" gradientUnits="userSpaceOnUse"><stop offset="0" stop-color="#582c81"/><stop offset="1" stop-color="#fefefe"/></linearGradient><linearGradient id="d" x1="30.4" y1="82.73" x2="125.12" y2="82.73" gradientUnits="userSpaceOnUse"><stop offset="0" stop-color="#185082" stop-opacity="0"/><stop offset="1" stop-color="#185082"/></linearGradient><linearGradient id="e" x1="100.58" y1="20.43" x2="211.2" y2="20.43" gradientUnits="userSpaceOnUse"><stop offset="0" stop-color="#185082"/><stop offset="1" stop-color="#185082" stop-opacity="0"/></linearGradient><clipPath id="f"><path d="M67.95,49.43c15.83-12.91,39.65-21.74,62.35-21.74,15.29,0,27.32,4.01,34.68,10.57,3.09-2.06,6.79-3.44,10.83-3.91-6.75-8.53-20.11-13.93-37.85-13.93-26.74,0-55.05,12.26-70,29.02" fill="none"/></clipPath><linearGradient id="g" x1="-958.6" y1="-591.72" x2="-957.89" y2="-591.72" gradientTransform="translate(113397.07 96497.6) scale(163.02) skewX(-24)" xlink:href="#c"/></defs><path d="M134.87,110.86h-5.49v-3.15h14.85v3.15h-5.49v14.35h-3.87v-14.35Z" fill="#185082"/><path d="M161.47,125.21h-4.22l-3.03-5.59c-.25-.43-.55-.74-.89-.93-.35-.19-.79-.28-1.32-.28h-1.91v6.8h-3.83v-17.51h8.05c2.05,0,3.61.45,4.66,1.35,1.05.9,1.58,2.2,1.58,3.91,0,1.33-.37,2.43-1.11,3.33-.74.89-1.78,1.48-3.12,1.76.91.23,1.68.89,2.31,1.96l2.83,5.19ZM156.15,114.89c.5-.39.74-1,.74-1.82s-.25-1.46-.74-1.84-1.3-.57-2.41-.57h-3.7v4.82h3.7c1.11,0,1.91-.19,2.41-.58Z" fill="#185082"/><path d="M165.5,123.54c-1.28-1.27-1.92-3.12-1.92-5.55v-10.28h3.8v10.45c0,1.39.32,2.45.96,3.18.64.73,1.56,1.09,2.77,1.09s2.14-.37,2.78-1.11c.64-.74.97-1.79.97-3.17v-10.45h3.8v10.28c0,2.42-.65,4.26-1.94,5.54-1.29,1.28-3.16,1.91-5.61,1.91s-4.32-.63-5.6-1.9Z" fill="#185082"/><path d="M185.62,124.32c-1.32-.75-2.33-1.8-3.03-3.15-.71-1.36-1.06-2.93-1.06-4.72s.35-3.36,1.06-4.72c.7-1.36,1.71-2.41,3.03-3.14,1.32-.74,2.86-1.11,4.63-1.11,1.16,0,2.27.18,3.33.54,1.06.36,1.93.85,2.61,1.48l-1.24,2.76c-.76-.58-1.52-1-2.27-1.27-.75-.26-1.54-.4-2.35-.4-1.56,0-2.75.5-3.59,1.49-.84.99-1.26,2.45-1.26,4.37s.42,3.38,1.26,4.38c.83,1,2.03,1.5,3.59,1.5.81,0,1.59-.13,2.35-.4.75-.26,1.51-.69,2.27-1.27l1.24,2.76c-.68.63-1.55,1.12-2.61,1.48-1.06.36-2.17.54-3.33.54-1.77,0-3.31-.37-4.63-1.12Z" fill="#185082"/><path d="M210.34,125.21l-7.6-8.07v8.07h-3.87v-17.51h3.87v7.7l7.35-7.7h4.57l-8.14,8.37,8.47,9.14h-4.64Z" fill="#185082"/><path d="M215.71,107.7h3.87v14.35h7.82v3.15h-11.7v-17.51Z" fill="#185082"/><path d="M232.21,124.33c-1.28-.74-2.27-1.78-2.97-3.13-.7-1.35-1.04-2.93-1.04-4.76s.35-3.41,1.04-4.76c.7-1.35,1.69-2.39,2.97-3.12,1.28-.73,2.79-1.09,4.53-1.09s3.25.37,4.53,1.09c1.28.73,2.27,1.77,2.97,3.12.7,1.35,1.04,2.93,1.04,4.76s-.35,3.41-1.04,4.76c-.7,1.35-1.68,2.39-2.97,3.13-1.28.74-2.79,1.11-4.53,1.11s-3.25-.37-4.53-1.11ZM240.18,120.89c.84-1.03,1.26-2.51,1.26-4.45s-.41-3.41-1.24-4.43c-.83-1.02-1.98-1.53-3.45-1.53s-2.62.51-3.44,1.53c-.82,1.02-1.23,2.5-1.23,4.43s.41,3.42,1.24,4.45c.83,1.03,1.97,1.54,3.43,1.54s2.61-.51,3.44-1.54Z" fill="#185082"/><path d="M259.44,121.34h-8.15l-1.66,3.87h-3.9l8.05-17.51h3.1l8.05,17.51h-3.82l-1.66-3.87ZM258.17,118.41l-2.81-6.56-2.81,6.56h5.61Z" fill="#185082"/><path d="M266.39,107.7h6.8c1.9,0,3.54.35,4.92,1.04,1.37.7,2.43,1.7,3.15,3.01.73,1.31,1.09,2.87,1.09,4.69s-.36,3.39-1.08,4.71c-.72,1.32-1.77,2.32-3.14,3.02s-3.02,1.04-4.94,1.04h-6.8v-17.51ZM272.93,122.08c3.72,0,5.59-1.88,5.59-5.64s-1.86-5.61-5.59-5.61h-2.66v11.25h2.66Z" fill="#185082"/><path d="M284.89,89.85v1.02h-1.98v5.15h-1.23v-5.15h-1.98v-1.02h5.18ZM291.56,96.02l-.23-3.63c-.02-.48-.02-1.07-.05-1.73h-.07c-.16.54-.34,1.27-.52,1.84l-1.11,3.43h-1.27l-1.11-3.52c-.11-.48-.3-1.2-.43-1.75h-.07c0,.57-.02,1.16-.05,1.73l-.23,3.63h-1.18l.45-6.18h1.84l1.07,3.02c.14.48.25.93.41,1.57h.02c.16-.57.3-1.09.43-1.54l1.07-3.04h1.77l.48,6.18h-1.23Z" fill="#582c81"/><g clip-path="url(#b)"><path d="M-7.21,53.4h135.49l-24.57,80.38H-31.78L-7.21,53.4Z" fill="url(#c)"/></g><path d="M33.38,71.86c-10.43,22.19,7.38,40.19,39.79,40.19,18.16,0,37.03-5.65,51.95-14.53h-7.32c-11.66,4.56-24.49,7.25-36.99,7.25-32.41,0-50.22-18-39.79-40.19,1.82-3.88,4.41-7.63,7.57-11.17-6.78,5.53-12.1,11.79-15.23,18.45" fill="url(#d)"/><path d="M100.59,15.08c18.57-9.05,43.91-12.37,65.98-7.35,23.55,5.36,36.68,18.69,35.3,33.12l1.14-5.39h8.1c1.38-14.43-11.76-27.76-35.31-33.12-6.99-1.59-14.31-2.34-21.63-2.34-19.93,0-39.94,5.58-53.59,15.07" fill="url(#e)"/><g clip-path="url(#f)"><path d="M67.95,20.42h120.77l-12.92,29.02H55.03l12.92-29.02Z" fill="url(#g)"/></g><path d="M152.61,77.43l-.38,1.76c-2.27,10.68,1.6,16.83,14.79,16.83s21.23-5.5,23.83-17.71c1.49-7.03.18-11.48-7.75-15.29l-8.15-3.88c-4.49-2.11-5.08-4.29-4.32-7.84.72-3.39,2.8-6.72,8.06-6.72,4.45,0,5.64,3.15,4.49,8.58h11.17l.34-1.62c2.36-11.08-4.22-15.53-14.57-15.53-11,0-19.1,5.75-21.49,16.99-2.05,9.62,1.82,13.91,11.41,17.48,7.12,2.67,9.38,4.61,8.26,9.87-1.03,4.85-4.91,7.12-8.47,7.12-6.15,0-6.94-3.48-5.79-8.9l.36-1.7h-11.65l-.13.57ZM128.04,45.71h4.3c8.9,0,8.52,6.72,5.74,19.82-3.34,15.69-6.03,20.79-14.12,20.79h-5.18l8.63-40.61h.63ZM105.3,94.9h18.36c15.45,0,21.78-9.22,26.13-29.69,3.61-16.99,3.06-28.07-13.12-28.07h-19.09l-12.21,57.43-.07.33Z" fill="#582c81" stroke="#185082" stroke-miterlimit="1.67" stroke-width="1.5"/><path d="M214.37,45.7h4.94c8.9,0,8.53,6.72,5.74,19.82-3.34,15.69-6.04,20.79-14.12,20.79h-5.18l8.63-40.61h0ZM193.14,94.89h17.49c15.45,0,21.78-9.22,26.13-29.69,3.61-16.99,3.06-28.07-13.12-28.07h-19.09l-12.28,57.76h.87Z" fill="#582c81" stroke="#185082" stroke-miterlimit="1.67" stroke-width="1.5"/><path d="M281.34,56.62c1.79-8.41,3.17-20.63-13.49-20.63s-22.31,12.46-26.04,30.02c-3.73,17.55-4.2,30.02,13.28,30.02,15.29,0,20.65-10.76,23.3-23.21h-11.65c-2.65,12.46-6.19,14.64-10.39,14.64-5.01,0-6.77-3.15-3.06-20.63,3.47-16.34,6.1-22.25,12.01-22.25,5.26,0,6.18,3.64,4.39,12.05h11.65Z" fill="#582c81" stroke="#185082" stroke-miterlimit="10"/></svg>